<svg width="52" height="18" viewBox="0 0 52 18" fill="none" xmlns="http://www.w3.org/2000/svg">
<path d="M42.8712 15.9856C41.2774 15.9856 39.8083 15.4442 38.6335 14.5366C39.8257 13.0086 40.5392 11.0869 40.5392 9C40.5392 6.91326 39.8257 4.99158 38.6335 3.46338C39.8083 2.556 41.2774 2.01438 42.8712 2.01438C46.7096 2.01438 49.8326 5.14818 49.8326 9C49.8326 12.852 46.7096 15.9856 42.8712 15.9856ZM27.3326 14.5366C28.5249 13.0086 29.2385 11.0869 29.2385 9C29.2385 6.91326 28.5249 4.99158 27.3328 3.46338C28.5073 2.556 29.9768 2.01438 31.5704 2.01438C33.1642 2.01438 34.6333 2.556 35.808 3.46338C34.6159 4.99158 33.9023 6.91326 33.9023 9C33.9023 11.0869 34.6159 13.0086 35.808 14.5366C34.6333 15.4442 33.1642 15.9856 31.5704 15.9856C29.9768 15.9856 28.5073 15.4442 27.3326 14.5366ZM16.0318 14.5366C17.2242 13.0086 17.9377 11.0869 17.9377 9C17.9377 6.91326 17.2242 4.99158 16.032 3.46338C17.2066 2.556 18.676 2.01438 20.2696 2.01438C21.8632 2.01438 23.3327 2.556 24.5072 3.46338C23.3151 4.99158 22.6015 6.91326 22.6015 9C22.6015 11.0869 23.3151 13.0086 24.5072 14.5366C23.3327 15.4442 21.8632 15.9856 20.2696 15.9856C18.676 15.9856 17.2066 15.4442 16.0318 14.5366ZM2.00741 9C2.00741 5.14818 5.13037 2.01438 8.96886 2.01438C10.5624 2.01438 12.0319 2.556 13.2065 3.46338C12.0143 4.99158 11.3008 6.91326 11.3008 9C11.3008 11.0869 12.0143 13.0086 13.2065 14.5366C12.0319 15.4442 10.5624 15.9856 8.96886 15.9856C5.13037 15.9856 2.00741 12.852 2.00741 9ZM14.6192 13.0729C13.7954 11.9254 13.3082 10.5192 13.3082 9C13.3082 7.48098 13.7954 6.07464 14.6192 4.92714C15.4431 6.07464 15.9303 7.48098 15.9303 9C15.9303 10.5192 15.4431 11.9254 14.6192 13.0729ZM25.92 13.0729C25.0961 11.9254 24.6089 10.5192 24.6089 9C24.6089 7.48098 25.0961 6.07464 25.92 4.92714C26.7439 6.07464 27.2311 7.48098 27.2311 9C27.2311 10.5192 26.7439 11.9254 25.92 13.0729ZM37.2208 13.0729C36.3969 11.9254 35.9097 10.5192 35.9097 9C35.9097 7.48098 36.3969 6.07464 37.2208 4.92714C38.0447 6.07464 38.5318 7.48098 38.5318 9C38.5318 10.5192 38.0447 11.9254 37.2208 13.0729ZM42.8712 0C40.7308 0 38.7641 0.757259 37.2208 2.01726C35.6774 0.757259 33.7107 0 31.5704 0C29.4301 0 27.4634 0.757259 25.92 2.01726C24.3766 0.757259 22.4098 0 20.2696 0C18.1293 0 16.1626 0.757259 14.6192 2.01726C13.0759 0.757259 11.109 0 8.96886 0C4.02343 0 0 4.0374 0 9C0 13.9628 4.02343 18 8.96886 18C11.109 18 13.0759 17.2429 14.6192 15.9827C16.1626 17.2429 18.1293 18 20.2696 18C22.4098 18 24.3766 17.2429 25.92 15.9827C27.4634 17.2429 29.4301 18 31.5704 18C33.7107 18 35.6774 17.2429 37.2208 15.9827C38.7641 17.2429 40.7308 18 42.8712 18C47.8166 18 51.84 13.9628 51.84 9C51.84 4.0374 47.8166 0 42.8712 0Z" fill="black"/>
</svg>
