<svg width="17403" height="1428" viewBox="0 0 17403 1428" fill="none" xmlns="http://www.w3.org/2000/svg">
<g clip-path="url(#clip0)">
<path d="M16859.7 697.102H16535.5V219.317H16871C17027.4 223.601 17141.4 316.302 17141.9 468.027C17140.2 601.605 17055.8 693.294 16859.6 697.102H16859.7ZM17387.5 1243.49C17290.2 1110.21 17144.8 912.79 17081.4 826.396C17224.1 763.504 17323.4 637.483 17323.4 464.636C17323 242.224 17144.7 46.648 16874.8 46.648H16402.2L16398.8 45.815C16381 45.815 16347.9 79.73 16347.9 104.839C16347.3 126.08 16347.3 1257.47 16347.9 1283.41C16348.3 1292.52 16346.5 1302.34 16357.5 1320.31C16371.8 1340.06 16392.9 1341.13 16402.2 1341.13H16480.9C16485.3 1341.13 16502 1342.44 16522.3 1321.91C16537.2 1304.3 16534.8 1293.35 16535.5 1283.41V866.023H16887.5L17207.7 1311.38C17216.1 1325.54 17245.3 1341.13 17266.3 1341.13H17343.1C17348.6 1341.13 17403.5 1326.43 17403.5 1289.6C17405.3 1272.17 17392.3 1249.14 17387.4 1243.49H17387.5ZM15837.8 1233.79C15836.7 1223.26 15843.3 1213.56 15825.6 1185.3C15805.8 1168.28 15792.9 1168.28 15782.7 1168.28C15781.6 1168.28 15778.2 1169.71 15775.2 1168.28H15109.8V770.049H15762.6C15802.3 770.049 15817.9 714 15817.9 698.887V661.997C15817.9 652.596 15800.4 596.547 15762.6 596.547H15111.6V219.555H15770C15778.3 220.507 15802.3 219.257 15818.3 197.778C15830.3 176.715 15829.4 165.826 15829.9 153.867V108.647C15826.7 98.1155 15832 85.561 15818 62.832C15798.6 46.767 15782.8 46.767 15773.6 46.767H14970.3C14965.4 45.815 14956 45.815 14940.2 56.7035C14919.5 76.6955 14926.3 92.9985 14925.4 95.9735V1275.62C14926.3 1287.16 14920.5 1298.05 14933.9 1316.68C14947.8 1337.86 14968.6 1341.07 14979.5 1341.07H15782.8C15790.3 1341.07 15802.3 1341.49 15822.5 1325.48C15842.8 1302.28 15837.3 1289.54 15837.8 1278.65V1233.85V1233.79ZM13995.5 589.288L14403.5 133.696C14410.1 125.188 14417 115.251 14417 102.459C14414.1 67.592 14388.4 46.7075 14357.5 46.7075H14282.1C14256.7 44.03 14230.7 62.356 14223.5 67.5325L13609.8 762.195V107.1C13609.8 98.175 13611.2 85.561 13597.7 65.0335C13582.3 47.1835 13561.1 46.7075 13551.8 46.7075H13481.5C13472.8 46.7075 13456.2 46.7075 13437.8 61.8205C13422.9 78.4805 13423.3 95.319 13423.3 104.779C13422.9 121.32 13422.9 1271.22 13423.3 1284.43C13423.3 1293.71 13423.3 1311.32 13438.5 1324.41C13453.4 1338.57 13471.3 1341.07 13483.9 1341.07H13546.8C13557.9 1340 13571.6 1341.49 13593.2 1327.39C13611.2 1309.89 13609.8 1291.39 13609.8 1284.43V1019.53L13864.4 733.338L14298.7 1304.24C14315.1 1317.57 14320.5 1332.98 14367.1 1341.13H14449.7C14468.8 1341.13 14507.5 1321.91 14507.5 1290.14C14507.1 1271.81 14501.6 1263.24 14494.7 1253.84L13995.5 589.229V589.288ZM12406 697.102H12079.6V219.317H12414.3C12571.1 223.601 12687.3 316.302 12688.6 468.027C12686.8 601.605 12602.3 693.294 12406.1 697.102H12406ZM12627.2 826.396C12769.7 763.504 12870.1 637.483 12869.6 464.636C12869.6 242.224 12692.9 46.648 12418.5 46.648H11947.5L11945.8 45.7555C11928.4 45.7555 11894.5 79.6705 11894.5 104.779V1283.41C11894.9 1292.52 11892.2 1302.34 11905.2 1320.31C11919.3 1340.06 11940.5 1341.13 11947.5 1341.13H12025.4C12028.7 1341.13 12047.7 1342.44 12067.1 1321.91C12082.8 1304.3 12079.7 1293.35 12079.7 1283.41V866.023H12433.5L12755.5 1311.38C12761.9 1325.54 12791 1341.13 12813 1341.13H12886.7C12894.5 1341.13 12949.5 1326.43 12949.5 1289.6C12950.2 1272.17 12937.7 1249.14 12932.7 1243.49C12834.7 1110.21 12692.4 912.79 12627.2 826.396V826.396ZM10586.2 880.66C10643.1 767.907 10767.4 515.151 10850.4 336.651C10851.3 336.056 10851.8 335.699 10851.8 335.104C10853.6 336.056 10854 336.591 10855.4 338.198C10940.2 514.675 11062 767.788 11115.9 880.6H10586.2V880.66ZM10905.2 51.051C10905.2 49.98 10886.7 14.161 10851.8 15.6485C10818.7 14.2205 10801.6 51.051 10801.6 51.051C10684.7 276.258 10269.4 1122.05 10203.6 1257.47C10197.9 1263.66 10193.5 1272.17 10193.5 1292.58C10197.9 1341.13 10246.9 1341.13 10256.3 1341.13H10318.2C10348.1 1346.25 10384.5 1312.87 10385.7 1299.6L10509.4 1049.22H11196.2L11320.9 1304.66C11322.2 1316.14 11354 1341.55 11374.3 1341.55C11375.2 1341.55 11376.6 1341.55 11377.8 1341.13H11454.9C11468.7 1341.13 11513.4 1325.54 11513.4 1291.98C11512.4 1276.33 11506.9 1268.9 11505.1 1259.5C11431.2 1107.29 11017.5 281.494 10905.1 51.051H10905.2ZM9570.49 700.018C9468.27 698.947 9309.44 698.947 9232.06 698.947V219.555H9567.01C9718.99 223.601 9836.99 308.388 9836.99 459.459C9836.17 619.633 9719.69 698.411 9570.55 700.018H9570.49ZM9572.69 46.7075H9099.56C9093.07 45.815 9075.02 47.3025 9061.62 62.356C9048.57 76.636 9045.85 91.511 9045.85 104.839V1283.41C9048.57 1292.52 9042.94 1302.34 9060 1323.28C9076.07 1341.13 9092.14 1341.13 9099.1 1341.13H9181.07C9187.04 1341.13 9209.49 1341.13 9223.41 1317.57C9235.36 1298.11 9230.84 1290.2 9232.12 1283.41V871.794H9537.48C9818.71 871.199 10022.7 714.119 10023.7 459.459C10022.7 203.609 9809.08 46.7075 9572.75 46.7075H9572.69ZM7625.01 46.7075H7551.16C7526.8 45.5175 7500.11 69.9125 7493.27 85.9775C7429.75 183.26 7210.93 526.991 7125.77 663.008C7040.09 524.968 6821.97 178.5 6758.4 80.92C6758.4 69.4365 6715.7 40.1625 6697.14 46.7075H6631.76C6619 46.7075 6574.21 46.7075 6565.16 95.914C6565.98 112.455 6572.01 120.785 6574.21 126.08C6666.28 271.974 6983.65 777.606 7033.25 852.873V1280.68C7034.23 1292.46 7030.58 1304.24 7047.17 1323.16C7059.06 1338.51 7077.22 1341.01 7086.44 1341.01H7158.49C7169.51 1341.01 7185.18 1341.01 7205.07 1323.16C7221.14 1300.73 7217.49 1288.65 7217.49 1276.16V852.814C7266.8 779.034 7573.09 294.108 7672.75 132.149C7676.52 120.666 7681.57 117.036 7682.96 95.8545C7679.71 49.147 7631.45 46.5885 7625.12 46.5885L7625.01 46.7075ZM5807.38 1169.77H5396.5V773.024H5804.07C5982.16 775.761 6073.01 857.097 6074.57 974.55C6069.35 1108.13 6002.64 1162.09 5807.44 1169.71L5807.38 1169.77ZM5396.55 219.257H5753.14C5923.11 224.017 6004.09 298.571 6006.24 410.431C5996.61 553.826 5956.64 596.547 5783.19 603.985H5396.55V219.317V219.257ZM6079.16 670.625C6150.51 616.361 6195.58 525.028 6192.97 403.053C6192.97 172.966 5985.3 46.767 5741.31 46.767H5268.53C5260.11 46.767 5242.65 46.767 5225.19 60.928C5208.08 74.732 5208.08 95.438 5208.08 107.219V1283.53C5208.08 1302.46 5238.07 1341.25 5264.35 1341.25H5820.78C6090.53 1341.25 6261.08 1218.38 6261.95 974.729C6261.95 839.247 6190.59 726.852 6079.21 670.684L6079.16 670.625ZM4189.77 697.162H3860.45V219.555H4197.95C4351.91 223.601 4467.7 316.361 4470.6 467.967C4465.03 601.605 4382.13 694.663 4189.71 697.043L4189.77 697.162ZM4409.34 826.872C4551.58 763.623 4652.87 637.662 4652.87 464.754C4650.08 241.748 4474.43 46.7075 4202.53 46.7075H3728.77C3721.98 45.815 3703.47 47.3025 3691.06 62.356C3677.72 76.636 3676.33 91.511 3676.33 104.839V1283.41C3676.33 1292.52 3673.08 1302.34 3685.49 1319.71C3701.62 1341.13 3722.73 1341.13 3731.14 1341.13H3808.41C3815.37 1341.13 3831.04 1341.13 3848.85 1323.28C3864.51 1302.34 3859.4 1292.52 3861.26 1283.41V867.986H4215.41L4537.02 1311.38C4546.88 1324.47 4570.08 1341.13 4590.97 1341.13H4668.82C4677.06 1341.13 4730.42 1328.87 4730.42 1289.6C4731.29 1271.75 4717.66 1248.55 4713.31 1243.49C4616.67 1111.22 4473.56 912.79 4409.11 826.753L4409.34 826.872ZM2357.24 880.779C2411.59 768.026 2536.78 515.27 2621.99 336.77C2621.99 336.175 2622.4 335.818 2622.4 334.39C2622.81 336.175 2623.91 336.77 2624.72 338.317C2711.33 514.794 2831 767.907 2887.16 880.719H2357.24V880.779ZM2674.14 51.051C2674.14 49.98 2658.89 14.161 2622.86 15.6485C2589.8 14.2205 2570.07 51.051 2570.07 51.051C2456.37 276.258 2040.04 1122.05 1973.91 1257.47C1968.68 1263.66 1962.3 1272.17 1962.3 1292.58C1968.68 1341.13 2018.57 1341.13 2027.27 1341.13H2089.35C2118.93 1346.25 2153.5 1312.87 2157.57 1299.6L2276.25 1049.22H2965.12L3088.51 1304.66C3089.67 1316.14 3123.32 1341.55 3142.46 1341.55C3143.62 1341.55 3145.94 1341.55 3146.93 1341.13H3225.65C3238.87 1341.13 3282.5 1325.54 3282.5 1291.98C3282.5 1276.33 3278.43 1268.9 3273.56 1259.5C3202.15 1107.29 2789.12 281.435 2674.14 51.051ZM1724.23 46.7075H1661.99C1646.56 41.65 1598.17 64.379 1598.17 85.561L1269.08 972.23L949.043 78.897C943.242 50.575 899.154 41.055 895.848 43.435H890.859C874.384 37.842 839.462 66.64 839.462 79.73L529.515 973.004C452.129 772.132 286.569 340.459 192.187 93.415C188.242 73.78 160.861 44.03 131.682 46.7075H51.4544C46.2335 46.7075 38.6922 45.815 21.2892 53.431C5.16244 62.951 -0.870602 85.561 0.115568 94.486C0.115568 109.182 4.75637 115.727 6.78672 126.021L473.593 1333.87C491.286 1362.79 517.449 1368.38 525.802 1368.38H529.515C529.515 1368.38 571.572 1371 584.218 1330.3C673.148 1079.51 822.813 665.865 894.572 469.455C964.88 668.185 1114.55 1089.33 1202.84 1330.66C1208.64 1359.52 1254.47 1369.51 1259.45 1368.38C1263.05 1369.57 1308.94 1359.46 1313.11 1332.09C1469.62 929.866 1657 445.298 1778.06 126.021C1781.2 115.727 1782.7 111.919 1783.98 95.914C1783.98 53.431 1729.22 46.7075 1724.23 46.7075V46.7075Z" fill="#414B56"/>
</g>
<defs>
<clipPath id="clip0">
<rect width="17403" height="1428" fill="white"/>
</clipPath>
</defs>
</svg>
